<svg width="422" height="403" fill="none" xmlns="http://www.w3.org/2000/svg"><path d="M117.2 7.5L2 217.3a14.6 14.6 0 0 0 13.5 22.1l89-7a14.6 14.6 0 0 0-2.2-29l-62.2 4.8 91-165.8 61 89.5 16-28.3-66-96.9a14.5 14.5 0 0 0-25 .8zm162.3-.1l-115 204c-3 4.8-3 11 .3 16l115 168.8a14.5 14.5 0 0 0 25-.8L420 185.7c1.5-2.5 2.3-5.5 2-8.6-.6-8-7.5-14-15.5-13.4l-89 6.8c-8 .6-14 7.6-13.4 15.6.5 8.1 7.5 14.2 15.6 13.5l62.2-4.8-91 165.8-70.4-103.2 37.1-65.9c3-4.7 3-11-.3-16l-21.5-31.4 69-122.3A14.6 14.6 0 0 0 292.1 0c-5 0-10 2.7-12.6 7.4zm-85.6 211l26-46 8.2 12.2-26 46-8.2-12.2zm-76.6 162.8c-4 7-1.5 15.9 5.4 19.9 7 4 15.9 1.5 19.8-5.5l54.3-96.3-18.3-26.8-61.2 108.7z" fill="url(#paint0_linear)"/><defs><linearGradient id="paint0_linear" x2="1" gradientUnits="userSpaceOnUse" gradientTransform="matrix(0 -402.999 401.333 0 10.3 403)"><stop stop-color="#FFDD18"/><stop offset="1" stop-color="#FBB040"/></linearGradient></defs></svg>